<svg height="512pt" viewBox="-119 0 512 512" width="512pt" xmlns="http://www.w3.org/2000/svg"><path d="m181.777344 258.355469c-11.886719-2.636719-23.316406-.308594-30 9.921875v95.5c5.367187-.957032 16.148437-.535156 30-8.300782zm0 0"/><path d="m151.777344 452.359375v14.515625c0 8.339844-6.726563 15.125-15 15.125-8.269532 0-15-6.785156-15-15.125 0-8.285156-6.714844-15-15-15-8.28125 0-15 6.714844-15 15 0 24.882812 20.1875 45.125 45 45.125s45-20.242188 45-45.125v-16.53125c-9.746094 1.972656-20.800782 3.664062-30 2.015625zm0 0"/><path d="m273.605469 291c-4.253907-55.59375-52.5-97.609375-108.425781-93.300781-46.054688 3.558593-80.640626 44.0625-77.101563 90.292969.632813 8.261718 7.824219 14.441406 16.101563 13.8125 8.257812-.632813 14.441406-7.84375 13.808593-16.105469-2.277343-29.746094 19.929688-55.804688 49.503907-58.089844 39.074218-3.019531 73.191406 26.328125 76.203124 65.679687 3.914063 51.117188-34.265624 95.898438-85.109374 99.824219-65.730469 5.082031-123.066407-44.261719-128.128907-110.394531-5.777343-75.410156 45.363281-137.992188 121.320313-152.40625v38.886719c9.871094-1.746094 20.195312-2.164063 30-1.515625v-41.117188c34.554687-7.179687 60-45.332031 60-81.441406 0-24.882812-20.183594-45.125-45-45.125-24.8125 0-45 20.242188-45 45.125v54.738281c-93.472656 15.058594-158.425782 91.226563-151.234375 185.148438 6.332031 82.667969 78.078125 144.371093 160.355469 138.011719 67.324218-5.199219 117.886718-64.425782 112.707031-132.023438zm-91.828125-245.875c0-8.339844 6.730468-15.125 15-15.125 7.632812 0 15 5.914062 15 15.765625 0 19.199219-12.945313 41.882813-30 49.425781zm0 0"/></svg>