<?xml version="1.0" encoding="iso-8859-1"?>
<!-- Generator: Adobe Illustrator 19.0.0, SVG Export Plug-In . SVG Version: 6.00 Build 0)  -->
<svg version="1.1" id="Capa_1" xmlns="http://www.w3.org/2000/svg" xmlns:xlink="http://www.w3.org/1999/xlink" x="0px" y="0px"
	 viewBox="0 0 221.053 221.053" style="enable-background:new 0 0 221.053 221.053;" xml:space="preserve">
<path d="M218.278,103.775L118.384,7.497c-2.098-2.022-4.889-3.136-7.856-3.136c-2.969,0-5.76,1.113-7.857,3.136L2.776,103.775
	c-3.346,3.224-2.955,5.996-2.425,7.312c0.531,1.315,2.115,3.605,6.761,3.605H18.36v85.57c0,8.906,7.676,16.43,16.368,16.43H85.36
	v-58h49v58h51.965c8.72,0,16.035-7.678,16.035-16.43v-85.57h11.581c4.646,0,6.229-2.29,6.761-3.605
	C221.232,109.771,221.624,107,218.278,103.775z"/>
<g>
</g>
<g>
</g>
<g>
</g>
<g>
</g>
<g>
</g>
<g>
</g>
<g>
</g>
<g>
</g>
<g>
</g>
<g>
</g>
<g>
</g>
<g>
</g>
<g>
</g>
<g>
</g>
<g>
</g>
</svg>
