<?xml version="1.0" encoding="iso-8859-1"?>
<!-- Generator: Adobe Illustrator 16.0.0, SVG Export Plug-In . SVG Version: 6.00 Build 0)  -->
<!DOCTYPE svg PUBLIC "-//W3C//DTD SVG 1.1//EN" "http://www.w3.org/Graphics/SVG/1.1/DTD/svg11.dtd">
<svg version="1.1" id="Capa_1" xmlns="http://www.w3.org/2000/svg" xmlns:xlink="http://www.w3.org/1999/xlink" x="0px" y="0px"
	 width="43.512px" height="43.512px" viewBox="0 0 43.512 43.512" style="enable-background:new 0 0 43.512 43.512;"
	 xml:space="preserve">
<g>
	<path d="M32.875,20.889c1.445-2.134,2.291-4.706,2.291-7.479C35.166,6.004,29.162,0,21.756,0S8.346,6.004,8.346,13.41
		c0,2.749,0.828,5.304,2.246,7.432c1.332,1.998,3.826,4.904,4.908,7.048l2.012,3.986h3.795h0.852h3.796l1.996-3.957
		C29.031,25.776,31.529,22.877,32.875,20.889z"/>
	<path d="M21.527,43.512c2.047,0,3.705-1.66,3.705-3.707h-7.414C17.818,41.852,19.479,43.512,21.527,43.512z"/>
	<path d="M17.678,36.204l7.871-1.494c0.59-0.11,0.977-0.681,0.865-1.271c-0.113-0.59-0.67-0.973-1.271-0.865l-7.871,1.495
		c-0.59,0.11-0.977,0.68-0.863,1.271c0.098,0.521,0.555,0.885,1.066,0.885C17.541,36.223,17.608,36.217,17.678,36.204z"/>
	<path d="M26.642,36.395c-0.11-0.59-0.67-0.971-1.271-0.865L17.5,37.023c-0.59,0.111-0.979,0.681-0.865,1.271
		c0.098,0.52,0.555,0.885,1.066,0.885c0.066,0,0.135-0.008,0.203-0.02l7.871-1.495C26.367,37.553,26.754,36.985,26.642,36.395z"/>
</g>
<g>
</g>
<g>
</g>
<g>
</g>
<g>
</g>
<g>
</g>
<g>
</g>
<g>
</g>
<g>
</g>
<g>
</g>
<g>
</g>
<g>
</g>
<g>
</g>
<g>
</g>
<g>
</g>
<g>
</g>
</svg>
